<?xml version="1.0" standalone="no"?>
<!DOCTYPE svg PUBLIC "-//W3C//DTD SVG 20010904//EN"
 "http://www.w3.org/TR/2001/REC-SVG-20010904/DTD/svg10.dtd">
<svg version="1.0" xmlns="http://www.w3.org/2000/svg"
 width="460.000000pt" height="460.000000pt" viewBox="0 0 460.000000 460.000000"
 preserveAspectRatio="xMidYMid meet">

<g transform="translate(0.000000,460.000000) scale(0.100000,-0.100000)"
fill="#000000" stroke="none">
<path d="M0 2300 l0 -2300 2300 0 2300 0 0 2300 0 2300 -2300 0 -2300 0 0
-2300z m2740 1988 c24 -39 26 -81 5 -98 -30 -25 -18 -79 39 -179 30 -53 61
-109 68 -126 16 -37 26 -45 61 -45 26 0 28 -2 22 -30 -4 -16 -1 -45 6 -64 11
-30 10 -40 -6 -76 -11 -23 -19 -58 -19 -77 0 -28 -9 -42 -48 -79 -29 -27 -56
-44 -72 -44 -55 0 -36 -49 40 -103 24 -17 44 -37 44 -44 0 -7 -12 -31 -26 -52
-14 -22 -28 -61 -32 -87 -4 -26 -12 -49 -17 -50 -6 -2 -26 29 -45 67 -35 72
-43 128 -26 190 6 20 1 32 -23 58 l-31 33 35 34 c20 18 51 41 70 50 38 18 105
87 105 108 0 20 -16 30 -108 66 -93 37 -107 52 -152 160 -16 38 -36 80 -44 92
-24 33 -19 81 13 152 35 77 97 176 111 176 6 0 19 -15 30 -32z m-575 -887 c77
-32 108 -51 140 -85 22 -24 50 -47 63 -51 34 -10 25 -46 -18 -68 -39 -20 -130
-18 -156 4 -11 9 -14 8 -14 -4 0 -20 56 -67 80 -67 28 0 57 -89 71 -216 19
-178 -4 -335 -55 -383 -23 -22 -30 -23 -118 -16 -239 17 -386 42 -677 115
-111 28 -204 50 -205 48 -11 -15 -37 -103 -42 -141 -5 -37 -3 -51 7 -58 23
-15 286 -99 357 -115 148 -33 304 -55 424 -61 70 -3 133 -10 140 -14 16 -10
-9 -57 -61 -112 l-36 -39 -87 6 c-142 11 -317 43 -519 96 -285 75 -358 103
-459 176 -59 43 -90 89 -90 137 0 40 13 48 54 34 25 -9 172 -4 182 6 2 2 -6
26 -18 53 -17 39 -23 73 -26 160 l-4 111 38 19 c30 15 61 19 137 19 74 0 97 3
97 13 0 7 14 46 30 86 43 102 104 160 302 285 37 24 102 58 145 77 106 47 175
44 318 -15z m664 -354 c10 -23 26 -48 35 -56 23 -19 20 -44 -9 -71 -14 -13
-31 -43 -36 -67 -6 -23 -26 -59 -44 -80 -37 -44 -67 -107 -59 -127 3 -7 16
-19 30 -26 13 -8 36 -29 50 -48 24 -31 30 -33 63 -27 20 4 58 16 84 27 66 29
72 21 72 -105 l0 -102 -69 -140 -68 -140 6 -75 c4 -41 9 -99 11 -129 2 -29 6
-59 9 -67 9 -24 -47 -17 -62 7 -12 19 -21 21 -108 17 -77 -2 -98 -6 -108 -20
-14 -19 -52 -23 -75 -9 -21 13 -5 41 23 41 30 0 46 25 46 71 0 18 12 53 26 77
l27 45 -22 18 c-27 22 -27 29 3 29 31 0 46 20 51 68 5 54 21 78 77 112 95 59
118 94 118 181 0 56 -19 65 -79 38 l-51 -22 -39 27 c-51 36 -191 167 -191 179
0 12 216 374 238 400 22 25 31 21 51 -26z m-1512 -797 c26 -10 31 -17 41 -72
19 -103 72 -201 155 -283 39 -40 88 -80 107 -90 39 -20 35 -15 -33 40 -53 42
-121 133 -155 205 -20 43 -45 150 -35 150 17 0 66 -48 96 -92 81 -121 178
-180 308 -186 81 -4 67 -8 310 92 49 20 107 37 134 38 47 3 48 2 57 -31 15
-55 3 -95 -33 -108 -24 -9 -30 -17 -27 -35 2 -13 13 -27 26 -33 35 -16 22 -38
-32 -51 -27 -7 -55 -19 -63 -27 -13 -13 -8 -13 38 -5 40 7 54 6 60 -4 19 -28
30 -94 24 -135 l-6 -43 -59 0 c-98 0 -279 28 -375 59 -63 20 -92 25 -97 17
-13 -19 -9 -26 13 -26 28 0 151 -29 168 -39 11 -7 10 -13 -3 -33 l-17 -25 62
-7 c132 -15 316 -95 302 -132 -6 -16 -29 -19 -38 -4 -11 18 -119 68 -182 84
-34 9 -95 19 -137 23 -42 3 -76 9 -76 13 0 4 9 19 20 33 25 32 18 35 -95 43
l-83 7 14 46 c7 25 14 46 14 47 0 0 -24 11 -52 24 -109 49 -233 152 -299 248
-29 41 -32 42 -84 42 -156 0 -521 -68 -755 -140 -73 -22 -80 -23 -80 -12 0 5
39 21 87 36 187 57 383 96 648 131 72 10 131 18 133 20 1 1 -2 15 -8 30 l-11
28 -232 -6 c-234 -6 -379 -21 -561 -58 -88 -18 -119 -19 -105 -4 8 8 138 33
285 55 94 14 214 23 372 27 230 6 232 6 226 27 -12 35 -24 90 -24 109 0 20 14
21 57 7z m701 -785 c68 -16 194 -75 229 -107 l22 -21 -37 -48 c-24 -32 -42
-46 -52 -43 -8 3 -94 26 -190 50 -222 57 -203 50 -190 74 8 15 8 20 -1 20 -7
0 -8 7 -4 18 4 9 7 24 7 33 -1 39 104 50 216 24z m-253 -107 c-3 -13 -12 -28
-21 -35 -12 -9 -14 -20 -9 -44 5 -22 4 -29 -4 -25 -6 4 -18 3 -27 -2 -14 -8
-14 -10 2 -26 14 -15 15 -19 3 -27 -10 -6 -10 -9 -1 -9 6 0 12 -4 12 -10 0 -5
-7 -10 -17 -10 -15 0 -15 -1 0 -18 26 -28 22 -55 -6 -48 -45 11 -98 37 -103
50 -9 24 35 96 100 162 34 35 65 64 68 64 4 0 5 -10 3 -22z m106 -55 c57 -16
60 -18 54 -42 -3 -14 -15 -38 -25 -53 -12 -16 -17 -34 -13 -44 5 -15 1 -16
-39 -10 -43 7 -78 1 -78 -13 0 -4 15 -5 34 -3 19 2 43 -1 53 -7 15 -9 12 -10
-19 -11 -20 0 -40 -5 -44 -11 -5 -9 8 -10 47 -6 44 5 50 4 32 -5 -25 -12 -29
-38 -13 -68 8 -15 6 -24 -10 -40 -11 -11 -26 -20 -34 -20 -13 0 -58 90 -71
142 -7 26 6 111 26 176 12 37 18 38 100 15z m419 -73 l0 -80 -77 -1 c-61 -1
-70 -3 -43 -9 23 -5 -5 -8 -84 -9 -108 -1 -118 0 -113 17 3 9 11 38 18 65 16
56 17 56 135 22 97 -28 88 -31 135 43 11 17 23 32 25 32 2 0 4 -36 4 -80z
m-202 -176 c55 -7 62 -13 35 -35 -18 -15 -43 -70 -43 -94 0 -11 10 -15 35 -15
19 0 35 5 35 11 0 6 6 9 13 6 56 -21 57 -20 57 21 0 62 18 102 46 102 l24 0 0
-250 0 -250 -59 0 c-89 0 -254 19 -366 41 -55 11 -101 22 -103 23 -3 3 32 242
43 292 2 11 26 36 52 55 79 58 76 58 69 3 l-7 -49 35 55 c25 39 33 62 29 79
-5 22 -4 23 23 17 16 -3 53 -9 82 -12z m-578 -68 c0 -7 9 -16 21 -19 15 -4 23
0 26 14 4 12 11 18 22 15 9 -3 43 -8 76 -11 108 -10 115 -13 115 -48 -1 -50
-46 -307 -56 -317 -10 -9 -133 -60 -146 -60 -4 0 -8 7 -8 16 0 11 -5 14 -16
10 -9 -3 -20 -6 -25 -6 -5 0 -9 -7 -9 -16 0 -13 -7 -15 -31 -10 -17 3 -42 6
-55 6 -17 0 -24 6 -24 20 0 11 -4 20 -10 20 -6 0 -10 67 -10 180 0 113 4 180
10 180 6 0 10 9 10 20 0 18 7 20 55 20 40 0 55 -4 55 -14z"/>
<path d="M1990 3264 c0 -4 9 -21 20 -40 29 -45 36 -120 17 -166 -8 -19 -32
-54 -52 -77 -21 -23 -33 -41 -28 -41 16 0 103 61 118 83 20 29 18 104 -4 152
-17 37 -71 105 -71 89z"/>
<path d="M2699 1899 c-13 -25 -14 -25 39 -32 51 -6 54 4 7 32 l-35 20 -11 -20z"/>
<path d="M2098 1153 c6 -2 18 -2 25 0 6 3 1 5 -13 5 -14 0 -19 -2 -12 -5z"/>
</g>
</svg>
